<svg width="1920" height="1080" viewBox="0 0 1920 1080" fill="none" xmlns="http://www.w3.org/2000/svg">
<path d="M299 -207.5L1579.5 245.5L1667.5 194.5L2324.5 400.5" stroke="#B9BAE3" stroke-width="2"/>
<path d="M1764.5 1184L402.648 794.898L351.938 706.731L-441.999 411" stroke="#B9BAE3" stroke-width="2"/>
<path d="M920.218 943.086L1007.59 891.014L2081.41 1196.91" stroke="#B9BAE3" stroke-width="2"/>
<path d="M0 692L33 672L233 726L200 745.5L0 692Z" fill="url(#paint0_linear_708_1687)"/>
<path d="M1346 136.073L1397.98 104.781L1713 189.271L1661.02 219.781L1346 136.073Z" fill="url(#paint1_linear_708_1687)"/>
<path d="M1379.06 113.793L1414.37 88.6848L1627 142L1589.34 167.13L1379.06 113.793Z" fill="url(#paint2_linear_708_1687)"/>
<path d="M641 162.204L691.138 132L995 213.551L944.863 243L641 162.204Z" fill="url(#paint3_linear_708_1687)"/>
<path d="M127.999 948.204L178.136 918L481.999 999.551L431.862 1029L127.999 948.204Z" fill="url(#paint4_linear_708_1687)"/>
<path d="M1554.5 365.49L1595.15 341L1841.5 407.122L1800.85 431L1554.5 365.49Z" fill="url(#paint5_linear_708_1687)"/>
<path d="M524.999 750L557.999 730L757.999 784L724.999 803.5L524.999 750Z" fill="url(#paint6_linear_708_1687)"/>
<path d="M578.499 746.49L619.147 722L865.499 788.122L824.851 812L578.499 746.49Z" fill="url(#paint7_linear_708_1687)"/>
<path d="M1805 146.293L1856.98 115L2172 199.49L2120.02 230L1805 146.293Z" fill="url(#paint8_linear_708_1687)"/>
<defs>
<linearGradient id="paint0_linear_708_1687" x1="221" y1="735.5" x2="23" y2="681.5" gradientUnits="userSpaceOnUse">
<stop stop-color="#B9BAE3"/>
<stop offset="1" stop-color="#B9BAE3" stop-opacity="0"/>
</linearGradient>
<linearGradient id="paint1_linear_708_1687" x1="1694.1" y1="204.134" x2="1382.52" y2="118.589" gradientUnits="userSpaceOnUse">
<stop stop-color="#C9C9E7" stop-opacity="0.54"/>
<stop offset="1" stop-color="#B9BAE3" stop-opacity="0"/>
</linearGradient>
<linearGradient id="paint2_linear_708_1687" x1="1607.17" y1="160.289" x2="1397.18" y2="100.15" gradientUnits="userSpaceOnUse">
<stop stop-color="#B7B8E2"/>
<stop offset="1" stop-color="#B9BAE3" stop-opacity="0"/>
</linearGradient>
<linearGradient id="paint3_linear_708_1687" x1="976.769" y1="227.898" x2="676.196" y2="145.429" gradientUnits="userSpaceOnUse">
<stop stop-color="#B9BAE3"/>
<stop offset="1" stop-color="#B9BAE3" stop-opacity="0"/>
</linearGradient>
<linearGradient id="paint4_linear_708_1687" x1="463.767" y1="1013.9" x2="163.195" y2="931.429" gradientUnits="userSpaceOnUse">
<stop stop-color="#B5B6E1"/>
<stop offset="1" stop-color="#B9BAE3" stop-opacity="0"/>
</linearGradient>
<linearGradient id="paint5_linear_708_1687" x1="1826.72" y1="418.755" x2="1583.03" y2="351.9" gradientUnits="userSpaceOnUse">
<stop stop-color="#B9BAE3"/>
<stop offset="1" stop-color="#B9BAE3" stop-opacity="0"/>
</linearGradient>
<linearGradient id="paint6_linear_708_1687" x1="745.999" y1="793.5" x2="547.999" y2="739.5" gradientUnits="userSpaceOnUse">
<stop stop-color="#9C9DD4"/>
<stop offset="1" stop-color="#B9BAE3" stop-opacity="0"/>
</linearGradient>
<linearGradient id="paint7_linear_708_1687" x1="850.718" y1="799.755" x2="607.03" y2="732.9" gradientUnits="userSpaceOnUse">
<stop stop-color="#B9BAE3"/>
<stop offset="1" stop-color="#B9BAE3" stop-opacity="0"/>
</linearGradient>
<linearGradient id="paint8_linear_708_1687" x1="2153.1" y1="214.354" x2="1841.52" y2="128.808" gradientUnits="userSpaceOnUse">
<stop stop-color="#9C9DD4"/>
<stop offset="1" stop-color="#B9BAE3" stop-opacity="0"/>
</linearGradient>
</defs>
</svg>
