<svg width="24" height="24" viewBox="0 0 24 24" fill="none" xmlns="http://www.w3.org/2000/svg">
<path d="M20.61 19.1901C21.2367 18.35 21.6668 17.3799 21.8685 16.3515C22.0702 15.323 22.0383 14.2624 21.7753 13.2478C21.5124 12.2333 21.0249 11.2908 20.349 10.4898C19.673 9.68883 18.8259 9.04986 17.87 8.62005C17.6618 7.42215 17.1833 6.28747 16.4708 5.30222C15.7584 4.31698 14.8307 3.50708 13.7583 2.93408C12.686 2.36108 11.4971 2.04006 10.2821 1.99539C9.06702 1.95073 7.85778 2.1836 6.74623 2.67631C5.63469 3.16903 4.65007 3.90863 3.86719 4.83891C3.08432 5.76918 2.52379 6.86567 2.22819 8.04505C1.9326 9.22443 1.90971 10.4557 2.16128 11.6452C2.41284 12.8348 2.93224 13.9513 3.68 14.9101L2.29 16.2901C2.15124 16.4307 2.05724 16.6093 2.01987 16.8032C1.9825 16.9972 2.00342 17.1979 2.08 17.3801C2.15502 17.5627 2.28242 17.719 2.44614 17.8293C2.60986 17.9397 2.80257 17.9991 3 18.0001H8.69C9.25664 19.1947 10.15 20.2043 11.2667 20.9122C12.3835 21.6201 13.6778 21.9973 15 22.0001H21C21.1974 21.9991 21.3901 21.9397 21.5539 21.8293C21.7176 21.719 21.845 21.5627 21.92 21.3801C21.9966 21.1979 22.0175 20.9972 21.9801 20.8032C21.9428 20.6093 21.8488 20.4307 21.71 20.2901L20.61 19.1901ZM8 15.0001C8.00137 15.3349 8.02812 15.6692 8.08 16.0001H5.41L5.76 15.6601C5.85373 15.5671 5.92812 15.4565 5.97889 15.3346C6.02966 15.2128 6.0558 15.0821 6.0558 14.9501C6.0558 14.818 6.02966 14.6873 5.97889 14.5655C5.92812 14.4436 5.85373 14.333 5.76 14.2401C5.19956 13.6858 4.75525 13.0253 4.45305 12.2973C4.15086 11.5693 3.99684 10.7883 4 10.0001C4 8.40875 4.63214 6.88263 5.75736 5.75741C6.88258 4.63219 8.4087 4.00005 10 4.00005C11.2417 3.99259 12.4545 4.37444 13.4679 5.09192C14.4814 5.8094 15.2445 6.82643 15.65 8.00005C15.43 8.00005 15.22 8.00005 15 8.00005C13.1435 8.00005 11.363 8.73755 10.0503 10.0503C8.7375 11.3631 8 13.1435 8 15.0001ZM18.54 20.0001L18.59 20.0501H15C13.8433 20.048 12.7232 19.645 11.8303 18.9097C10.9375 18.1743 10.3272 17.1522 10.1034 16.0174C9.87962 14.8826 10.0562 13.7053 10.6031 12.6861C11.1499 11.6669 12.0333 10.8688 13.1026 10.4278C14.1718 9.98675 15.361 9.93011 16.4673 10.2675C17.5737 10.6049 18.5289 11.3154 19.1701 12.278C19.8114 13.2406 20.0991 14.3958 19.9842 15.5468C19.8693 16.6977 19.3589 17.7732 18.54 18.5901C18.3516 18.7747 18.2438 19.0263 18.24 19.2901C18.2405 19.4224 18.2673 19.5532 18.3188 19.6751C18.3703 19.797 18.4455 19.9074 18.54 20.0001Z" fill="#7353EA"/>
</svg>
