<svg width="24" height="24" viewBox="0 0 24 24" fill="none" xmlns="http://www.w3.org/2000/svg">
<path d="M20.5 12.9999C20.2348 12.9999 19.9804 13.1053 19.7929 13.2928C19.6054 13.4803 19.5 13.7347 19.5 13.9999V17.9999C19.5 18.2651 19.3946 18.5195 19.2071 18.707C19.0196 18.8945 18.7652 18.9999 18.5 18.9999H4.5C4.23478 18.9999 3.98043 18.8945 3.79289 18.707C3.60536 18.5195 3.5 18.2651 3.5 17.9999V8.40989L9.38 14.2999C9.94125 14.8566 10.6995 15.1692 11.49 15.1699C11.8903 15.1709 12.2867 15.0918 12.656 14.9372C13.0252 14.7827 13.3598 14.5558 13.64 14.2699L14.53 13.3899C14.6669 13.1968 14.7309 12.9613 14.7106 12.7255C14.6902 12.4896 14.5869 12.2686 14.4188 12.1018C14.2508 11.935 14.0291 11.8332 13.7931 11.8146C13.5571 11.7959 13.3221 11.8616 13.13 11.9999L12.2 12.9099C12.0131 13.0931 11.7618 13.1958 11.5 13.1958C11.2382 13.1958 10.9869 13.0931 10.8 12.9099L4.91 6.99989H9.5C9.76522 6.99989 10.0196 6.89454 10.2071 6.707C10.3946 6.51946 10.5 6.26511 10.5 5.99989C10.5 5.73468 10.3946 5.48032 10.2071 5.29279C10.0196 5.10525 9.76522 4.99989 9.5 4.99989H4.5C3.70435 4.99989 2.94129 5.31596 2.37868 5.87857C1.81607 6.44118 1.5 7.20424 1.5 7.99989V17.9999C1.5 18.7955 1.81607 19.5586 2.37868 20.1212C2.94129 20.6838 3.70435 20.9999 4.5 20.9999H18.5C19.2956 20.9999 20.0587 20.6838 20.6213 20.1212C21.1839 19.5586 21.5 18.7955 21.5 17.9999V13.9999C21.5 13.7347 21.3946 13.4803 21.2071 13.2928C21.0196 13.1053 20.7652 12.9999 20.5 12.9999ZM21.55 3.99989C21.0433 3.51141 20.3949 3.19602 19.6978 3.099C19.0007 3.00198 18.2908 3.12833 17.67 3.45989C16.9859 3.08365 16.1892 2.96625 15.4256 3.12917C14.6621 3.29209 13.9827 3.72443 13.5117 4.34713C13.0408 4.96983 12.8097 5.74126 12.8608 6.52033C12.9119 7.2994 13.2417 8.03405 13.79 8.58989L17 11.7099C17.1916 11.8926 17.4452 11.9962 17.71 11.9999C17.8416 12.0007 17.9721 11.9754 18.0939 11.9257C18.2157 11.8759 18.3266 11.8026 18.42 11.7099L21.59 8.53989C22.1748 7.92642 22.4977 7.10931 22.4902 6.26179C22.4828 5.41426 22.1455 4.60297 21.55 3.99989ZM20.14 7.11989L17.67 9.58989L15.21 7.11989C15.0944 7.00236 15.0032 6.86322 14.9414 6.7104C14.8796 6.55759 14.8485 6.39411 14.8499 6.22929C14.8527 5.89641 14.9876 5.57828 15.225 5.34489C15.4624 5.1115 15.7827 4.98197 16.1156 4.98478C16.4485 4.98759 16.7666 5.12252 17 5.35989C17.093 5.45362 17.2036 5.52802 17.3254 5.57878C17.4473 5.62955 17.578 5.65569 17.71 5.65569C17.842 5.65569 17.9727 5.62955 18.0946 5.57878C18.2164 5.52802 18.327 5.45362 18.42 5.35989C18.6577 5.13483 18.9726 5.00941 19.3 5.00941C19.6274 5.00941 19.9423 5.13483 20.18 5.35989C20.4044 5.60042 20.5258 5.91917 20.5184 6.24804C20.5109 6.5769 20.3751 6.8898 20.14 7.11989Z" fill="#7353EA"/>
</svg>
