<svg width="24" height="24" viewBox="0 0 24 24" fill="none" xmlns="http://www.w3.org/2000/svg">
<path d="M6 6C6 5.46957 6.21071 4.96086 6.58579 4.58579C6.96086 4.21071 7.46957 4 8 4C8.26522 4 8.51957 3.89464 8.70711 3.70711C8.89464 3.51957 9 3.26522 9 3C9 2.73478 8.89464 2.48043 8.70711 2.29289C8.51957 2.10536 8.26522 2 8 2C6.93913 2 5.92172 2.42143 5.17157 3.17157C4.42143 3.92172 4 4.93913 4 6V9C4 9.53043 3.78929 10.0391 3.41421 10.4142C3.03914 10.7893 2.53043 11 2 11C1.73478 11 1.48043 11.1054 1.29289 11.2929C1.10536 11.4804 1 11.7348 1 12C1 12.2652 1.10536 12.5196 1.29289 12.7071C1.48043 12.8946 1.73478 13 2 13C2.53043 13 3.03914 13.2107 3.41421 13.5858C3.78929 13.9609 4 14.4696 4 15V18C4 19.0609 4.42143 20.0783 5.17157 20.8284C5.92172 21.5786 6.93913 22 8 22C8.26522 22 8.51957 21.8946 8.70711 21.7071C8.89464 21.5196 9 21.2652 9 21C9 20.7348 8.89464 20.4804 8.70711 20.2929C8.51957 20.1054 8.26522 20 8 20C7.46957 20 6.96086 19.7893 6.58579 19.4142C6.21071 19.0391 6 18.5304 6 18V15C5.99679 14.4305 5.87201 13.8683 5.63403 13.3509C5.39604 12.8336 5.05032 12.373 4.62 12C5.05032 11.627 5.39604 11.1664 5.63403 10.6491C5.87201 10.1317 5.99679 9.56947 6 9V6ZM22 11C21.4696 11 20.9609 10.7893 20.5858 10.4142C20.2107 10.0391 20 9.53043 20 9V6C20 4.93913 19.5786 3.92172 18.8284 3.17157C18.0783 2.42143 17.0609 2 16 2C15.7348 2 15.4804 2.10536 15.2929 2.29289C15.1054 2.48043 15 2.73478 15 3C15 3.26522 15.1054 3.51957 15.2929 3.70711C15.4804 3.89464 15.7348 4 16 4C16.5304 4 17.0391 4.21071 17.4142 4.58579C17.7893 4.96086 18 5.46957 18 6V9C18.0032 9.56947 18.128 10.1317 18.366 10.6491C18.604 11.1664 18.9497 11.627 19.38 12C18.9497 12.373 18.604 12.8336 18.366 13.3509C18.128 13.8683 18.0032 14.4305 18 15V18C18 18.5304 17.7893 19.0391 17.4142 19.4142C17.0391 19.7893 16.5304 20 16 20C15.7348 20 15.4804 20.1054 15.2929 20.2929C15.1054 20.4804 15 20.7348 15 21C15 21.2652 15.1054 21.5196 15.2929 21.7071C15.4804 21.8946 15.7348 22 16 22C17.0609 22 18.0783 21.5786 18.8284 20.8284C19.5786 20.0783 20 19.0609 20 18V15C20 14.4696 20.2107 13.9609 20.5858 13.5858C20.9609 13.2107 21.4696 13 22 13C22.2652 13 22.5196 12.8946 22.7071 12.7071C22.8946 12.5196 23 12.2652 23 12C23 11.7348 22.8946 11.4804 22.7071 11.2929C22.5196 11.1054 22.2652 11 22 11Z" fill="#616161"/>
</svg>
