<svg width="46" height="21" viewBox="0 0 46 21" fill="none" xmlns="http://www.w3.org/2000/svg">
<rect width="46" height="21" rx="2" fill="#605EA0"/>
<path d="M14.164 4.366H15.578V17.162H14.164V4.366ZM8.83 9.448H11.84V10.624H8.83V9.448ZM11.49 4.674H12.862V16.546H11.49V4.674ZM8.732 5.934H10.146C10.146 9.42 8.914 12.388 5.4 14.446L4.56 13.41C7.528 11.632 8.732 9.266 8.732 6.214V5.934ZM5.19 5.934H9.236V7.124H5.19V5.934ZM20.7709 5.416H21.9749V7.516C21.9749 10.61 20.5889 13.452 18.2929 14.572L17.4109 13.354C19.4549 12.43 20.7709 9.966 20.7709 7.516V5.416ZM21.0509 5.416H22.2409V7.516C22.2409 9.868 23.5429 12.22 25.5589 13.116L24.6909 14.292C22.4369 13.228 21.0509 10.498 21.0509 7.516V5.416ZM26.5809 4.352H28.0509V17.176H26.5809V4.352ZM31.8438 4.898H40.0198V6.06H31.8438V4.898ZM30.4018 9.014H41.9938V10.19H30.4018V9.014ZM39.1098 4.898H40.5518V5.738C40.5518 6.662 40.5518 7.838 40.2158 9.364L38.7738 9.224C39.1098 7.712 39.1098 6.634 39.1098 5.738V4.898ZM31.7318 11.282H40.5518V14.684H33.2158V16.252H31.7458V13.578H39.0958V12.43H31.7318V11.282ZM31.7458 15.888H40.8878V17.036H31.7458V15.888Z" fill="white"/>
</svg>
