<svg width="48" height="48" viewBox="0 0 48 48" fill="none" xmlns="http://www.w3.org/2000/svg">
<path d="M42 21H40V19C40 18.4696 39.7893 17.9609 39.4142 17.5858C39.0391 17.2107 38.5304 17 38 17C37.4696 17 36.9609 17.2107 36.5858 17.5858C36.2107 17.9609 36 18.4696 36 19V21H34C33.4696 21 32.9609 21.2107 32.5858 21.5858C32.2107 21.9609 32 22.4696 32 23C32 23.5304 32.2107 24.0391 32.5858 24.4142C32.9609 24.7893 33.4696 25 34 25H36V27C36 27.5304 36.2107 28.0391 36.5858 28.4142C36.9609 28.7893 37.4696 29 38 29C38.5304 29 39.0391 28.7893 39.4142 28.4142C39.7893 28.0391 40 27.5304 40 27V25H42C42.5304 25 43.0391 24.7893 43.4142 24.4142C43.7893 24.0391 44 23.5304 44 23C44 22.4696 43.7893 21.9609 43.4142 21.5858C43.0391 21.2107 42.5304 21 42 21ZM26.6 24.44C27.6672 23.5163 28.5231 22.3738 29.1097 21.09C29.6964 19.8063 30 18.4114 30 17C30 14.3478 28.9464 11.8043 27.0711 9.92893C25.1957 8.05357 22.6522 7 20 7C17.3478 7 14.8043 8.05357 12.9289 9.92893C11.0536 11.8043 10 14.3478 10 17C9.99998 18.4114 10.3036 19.8063 10.8903 21.09C11.4769 22.3738 12.3328 23.5163 13.4 24.44C10.6003 25.7078 8.22493 27.7551 6.55796 30.3371C4.89099 32.9191 4.00294 35.9266 4 39C4 39.5304 4.21071 40.0391 4.58579 40.4142C4.96086 40.7893 5.46957 41 6 41C6.53043 41 7.03914 40.7893 7.41421 40.4142C7.78929 40.0391 8 39.5304 8 39C8 35.8174 9.26428 32.7652 11.5147 30.5147C13.7652 28.2643 16.8174 27 20 27C23.1826 27 26.2348 28.2643 28.4853 30.5147C30.7357 32.7652 32 35.8174 32 39C32 39.5304 32.2107 40.0391 32.5858 40.4142C32.9609 40.7893 33.4696 41 34 41C34.5304 41 35.0391 40.7893 35.4142 40.4142C35.7893 40.0391 36 39.5304 36 39C35.9971 35.9266 35.109 32.9191 33.442 30.3371C31.7751 27.7551 29.3997 25.7078 26.6 24.44V24.44ZM20 23C18.8133 23 17.6533 22.6481 16.6666 21.9888C15.6799 21.3295 14.9108 20.3925 14.4567 19.2961C14.0026 18.1997 13.8838 16.9933 14.1153 15.8295C14.3468 14.6656 14.9182 13.5965 15.7574 12.7574C16.5965 11.9182 17.6656 11.3468 18.8295 11.1153C19.9933 10.8838 21.1997 11.0026 22.2961 11.4567C23.3925 11.9108 24.3295 12.6799 24.9888 13.6666C25.6481 14.6533 26 15.8133 26 17C26 18.5913 25.3679 20.1174 24.2426 21.2426C23.1174 22.3679 21.5913 23 20 23Z" fill="#424242"/>
</svg>
